<?xml version="1.0" standalone="no"?>
<!DOCTYPE svg PUBLIC "-//W3C//DTD SVG 20010904//EN"
 "http://www.w3.org/TR/2001/REC-SVG-20010904/DTD/svg10.dtd">
<svg version="1.0" xmlns="http://www.w3.org/2000/svg"
 width="34.000000pt" height="34.000000pt" viewBox="0 0 34.000000 34.000000"
 preserveAspectRatio="xMidYMid meet">

<g transform="translate(0.000000,34.000000) scale(0.100000,-0.100000)"
fill="#000000" stroke="none">
<path d="M0 170 l0 -170 170 0 170 0 0 170 0 170 -170 0 -170 0 0 -170z m250
70 c0 -15 -7 -20 -25 -20 -23 0 -24 -3 -27 -67 -3 -66 -4 -68 -30 -71 l-28 -3
0 70 c0 69 -1 71 -25 71 -18 0 -25 5 -25 20 0 18 7 20 80 20 73 0 80 -2 80
-20z"/>
</g>
</svg>
